<svg width="362" height="260" viewBox="0 0 362 260" fill="none" xmlns="http://www.w3.org/2000/svg">
<path d="M101.856 0.859558C103.028 0.853848 104.199 0.848138 105.407 0.842255C106.684 0.841137 107.961 0.840019 109.276 0.838867C110.642 0.834235 112.007 0.82921 113.373 0.823822C117.075 0.810732 120.778 0.80426 124.481 0.799811C126.797 0.796875 129.113 0.792769 131.429 0.788307C138.685 0.774641 145.941 0.76497 153.196 0.761105C161.556 0.756627 169.915 0.739087 178.275 0.710105C184.747 0.688448 191.22 0.678399 197.692 0.677064C201.553 0.676019 205.413 0.670172 209.274 0.652245C212.908 0.635695 216.543 0.633642 220.177 0.642384C222.135 0.643514 224.093 0.62985 226.051 0.615631C243.363 0.697122 251.498 8.18813 263.332 20.0728C264.344 21.0823 265.357 22.0915 266.37 23.1002C269.099 25.8206 271.822 28.5472 274.544 31.2753C277.4 34.1365 280.261 36.9928 283.121 39.8499C287.918 44.6428 292.71 49.4398 297.5 54.2393C303.036 59.786 308.579 65.3255 314.126 70.8613C318.896 75.6229 323.663 80.3885 328.427 85.1573C331.268 88.002 334.111 90.8454 336.958 93.6853C339.63 96.3517 342.297 99.0229 344.961 101.698C345.939 102.678 346.918 103.657 347.9 104.634C349.239 105.968 350.571 107.308 351.903 108.649C353.024 109.771 353.024 109.771 354.168 110.916C355.905 112.892 356.892 114.638 358 117C358.66 117.66 359.32 118.32 360 119C361.895 126.148 362.275 134.115 359.188 140.938C350.537 155.513 337.109 167.234 325.233 179.135C323.701 180.67 322.171 182.207 320.641 183.744C315.285 189.124 309.924 194.498 304.558 199.867C299.582 204.847 294.62 209.84 289.663 214.838C285.378 219.158 281.084 223.467 276.783 227.769C274.226 230.327 271.673 232.889 269.13 235.46C266.297 238.324 263.444 241.168 260.59 244.01C259.764 244.85 258.938 245.691 258.087 246.557C250.323 254.225 242.302 259.101 231.24 259.147C230.064 259.154 228.888 259.161 227.676 259.169C226.39 259.172 225.103 259.174 223.777 259.177C222.405 259.183 221.033 259.19 219.661 259.197C215.158 259.218 210.655 259.228 206.152 259.238C204.599 259.242 203.045 259.246 201.491 259.251C194.187 259.27 186.884 259.284 179.58 259.292C171.168 259.302 162.757 259.328 154.345 259.369C147.832 259.399 141.319 259.414 134.806 259.417C130.922 259.419 127.038 259.428 123.153 259.453C119.493 259.477 115.834 259.481 112.174 259.471C110.206 259.47 108.239 259.489 106.272 259.509C97.5176 259.458 89.371 258.398 82.2813 252.887C76.79 246.107 73.3588 240.499 73.6445 231.559C74.7052 223.924 78.7828 217.559 84.75 212.812C90.8358 209.418 96.7434 208.751 103.622 208.76C104.337 208.758 105.052 208.756 105.788 208.754C107.325 208.751 108.861 208.752 110.398 208.756C112.832 208.762 115.266 208.753 117.7 208.739C124.615 208.702 131.531 208.683 138.446 208.695C142.69 208.7 146.932 208.682 151.176 208.649C152.788 208.641 154.4 208.642 156.011 208.653C158.264 208.667 160.514 208.651 162.766 208.628C164.046 208.627 165.325 208.626 166.643 208.626C170.866 207.839 172.343 206.299 175 203C175.907 199.974 175.464 198.25 175 195C173.108 192.267 171.93 191.24 168.715 190.411C165.851 189.977 163.148 189.872 160.252 189.869C159.103 189.865 157.955 189.861 156.773 189.857C155.522 189.857 154.272 189.858 152.983 189.858C151.646 189.855 150.308 189.852 148.971 189.848C146.095 189.84 143.22 189.835 140.344 189.831C135.792 189.825 131.24 189.809 126.688 189.79C125.128 189.784 123.567 189.777 122.007 189.771C121.225 189.768 120.444 189.765 119.639 189.761C109.047 189.719 98.4541 189.686 87.8616 189.674C80.7099 189.666 73.5584 189.643 66.4069 189.605C62.6261 189.585 58.8457 189.573 55.0649 189.578C51.5065 189.582 47.9487 189.568 44.3904 189.541C42.4716 189.53 40.5528 189.54 38.634 189.55C30.2088 189.459 24.9025 188.267 18.3125 182.75C17.5494 181.842 16.7863 180.935 16 180C15.5334 179.47 15.0667 178.94 14.586 178.395C9.85468 172.196 10.0782 165.506 11 158C12.8773 150.736 18.4772 145.825 24.6833 141.949C34.4846 137.935 48.8779 139.882 59.3869 139.955C62.0037 139.973 64.6205 139.983 67.2374 139.991C74.6642 140.015 82.0909 140.051 89.5176 140.096C94.0942 140.123 98.6708 140.14 103.248 140.151C104.975 140.157 106.703 140.167 108.431 140.181C122.827 141.193 122.827 141.193 135.699 136.602C137.712 134.123 137.876 132.16 138 129C136.457 124.756 136.457 124.756 133.174 121.844C130.758 120.906 128.996 120.75 126.41 120.748C125.494 120.743 124.577 120.738 123.633 120.732C122.135 120.738 122.135 120.738 120.607 120.745C119.55 120.741 118.492 120.737 117.403 120.734C115.106 120.727 112.808 120.724 110.511 120.726C106.87 120.727 103.23 120.714 99.5888 120.697C89.2365 120.65 78.8842 120.626 68.5318 120.619C62.1987 120.614 55.866 120.59 49.5331 120.554C47.1243 120.544 44.7154 120.542 42.3066 120.547C38.9272 120.554 35.5487 120.537 32.1694 120.514C31.1831 120.522 30.1968 120.531 29.1805 120.539C21.5922 120.449 14.6602 118.886 8.59767 114.105C3.36278 107.565 0.399617 102.022 0.722671 93.4805C1.59107 85.7138 5.26557 80.2142 11 75C20.2894 68.053 33.9281 69.8583 44.9033 69.9182C46.2517 69.9218 47.6001 69.9249 48.9485 69.9275C51.8261 69.934 54.7037 69.9435 57.5813 69.9554C62.1379 69.9739 66.6945 69.9833 71.2512 69.9913C84.1994 70.0153 97.1476 70.0514 110.096 70.0959C117.267 70.1205 124.438 70.1379 131.609 70.1475C136.133 70.154 140.656 70.1695 145.18 70.1918C147.997 70.2036 150.814 70.2069 153.631 70.2079C155.548 70.2111 157.464 70.2242 159.38 70.2377C169.554 70.333 169.554 70.333 178.938 66.8125C180.658 63.8779 180.884 61.3728 181 58C179.864 55.6237 178.856 53.8556 177 52C174.558 51.8962 172.144 51.8564 169.701 51.8582C168.555 51.8529 168.555 51.8529 167.385 51.8476C165.718 51.8403 164.051 51.8349 162.384 51.8313C159.739 51.8242 157.094 51.8085 154.449 51.79C146.926 51.7375 139.403 51.6896 131.879 51.6741C127.281 51.6639 122.683 51.6345 118.084 51.5928C116.337 51.5805 114.59 51.5753 112.842 51.5775C100.174 51.5898 90.2669 50.832 80.625 41.7344C75.4771 36.24 74.6823 30.8599 74.7891 23.5898C75.3785 16.3535 78.7035 10.8644 84 6C89.6707 1.86904 94.9679 0.879722 101.856 0.859558ZM216 72C214.632 76.7871 214.86 79.5842 217 84C218.603 86.0184 218.603 86.0184 220.56 87.8689C221.652 88.9504 221.652 88.9504 222.765 90.0538C223.552 90.8185 224.338 91.5832 225.148 92.3711C225.957 93.171 226.766 93.971 227.6 94.7952C230.184 97.3499 232.779 99.8945 235.375 102.438C237.963 104.978 240.549 107.52 243.129 110.069C244.733 111.654 246.342 113.233 247.957 114.807C257.562 124.284 257.562 124.284 258.328 129.033C258.298 134.143 256.572 136.958 253.139 140.658C251.434 142.314 249.71 143.949 247.969 145.566C247.063 146.445 246.156 147.323 245.223 148.228C242.333 151.026 239.42 153.797 236.5 156.562C233.58 159.331 230.669 162.108 227.777 164.908C225.981 166.647 224.169 168.37 222.339 170.073C217.174 174.926 217.174 174.926 214.854 181.41C215.054 186.332 216.596 188.596 220 192C222.23 192.396 222.23 192.396 224.75 192.375C225.59 192.403 226.431 192.432 227.297 192.461C233.107 191.47 237.286 186.968 241.331 182.944C241.826 182.454 242.321 181.964 242.831 181.459C244.45 179.854 246.061 178.242 247.672 176.629C248.802 175.503 249.932 174.377 251.062 173.252C253.422 170.899 255.779 168.542 258.132 166.183C261.146 163.164 264.17 160.157 267.198 157.152C269.531 154.833 271.858 152.508 274.183 150.18C275.295 149.068 276.41 147.958 277.527 146.851C279.087 145.303 280.638 143.746 282.187 142.186C283.07 141.303 283.953 140.42 284.864 139.511C287.703 136.174 289 133.577 289 129.188C286.221 120.33 278.033 113.781 271.605 107.445C270.607 106.453 269.609 105.46 268.612 104.467C266.007 101.876 263.398 99.2907 260.786 96.707C256.588 92.5525 252.397 88.391 248.209 84.2264C246.749 82.776 245.285 81.329 243.82 79.8824C242.939 79.0074 242.057 78.1324 241.149 77.231C240.37 76.4601 239.591 75.6893 238.788 74.8951C237 73 237 73 236 71C235.5 70.5 235.479 70.4682 235 70C234.521 69.5318 234 69.68 234 69C227.239 64.4925 220.908 66.3741 216 72Z" fill="#0069CB"/>
</svg>
